<svg xmlns="http://www.w3.org/2000/svg" viewBox="0 0 213.86 202.45"><defs><style>.cls-1{fill:#f37233;}</style></defs><title>Asset 1</title><g id="Layer_2" data-name="Layer 2"><g id="Layer_2-2" data-name="Layer 2"><path class="cls-1" d="M213.86,86c0-30.31-22.77-55-50.75-55a46.79,46.79,0,0,0-10.1,1.1C145,13.2,127.32,0,106.85,0S68.72,13.18,60.7,32.12a47.39,47.39,0,0,0-10-1.06C22.77,31.06,0,55.72,0,86c0,27.7,19,50.67,43.64,54.43-3.86,3.77-7.43,8.56-5.91,12.49,1.47,3.77,6.31,4.49,10.92,4.36-.43,5-.74,14.11,1.61,22.52a52.52,52.52,0,0,1,1.3,20.62h0l2,.35,1,.17,3,.54A57.29,57.29,0,0,0,56,178.22c-2.16-7.72-1.77-16.45-1.36-20.83.68,0,1.4.07,2.13.07,3.94,0,8.37-.81,9.75-4.2s-.89-7.46-7.49-13c16.85-3,30.92-15.07,37.83-31.39,1.3.29,2.63.52,4,.69-4.29,4.64-9.55,11.73-7.12,16.54,1.44,2.87,4.63,3.68,8,3.68.91,0,1.83-.06,2.73-.15.08,6.7.44,19.72,2,22.81.76,1.75,1.41,11.74,1.56,20l6-.11c-.11-5.68-.53-19.25-2.17-22.53-.73-1.75-1.27-11.64-1.38-20.29,4,0,9.36-.69,10.92-4.55s-1.24-8.64-9.39-15.3a47.3,47.3,0,0,0,5-.82C123.78,125,137.66,137,154.3,140.17c-4.48,4.11-8.48,9.17-6.89,13.18,1.51,3.83,6.45,4.31,11.3,4-.27,4.74-1.07,17.85-2.15,25.53a76,76,0,0,0,0,19.59l5.94-.89a69.72,69.72,0,0,1,0-17.86c1.14-8.11,1.95-21.56,2.21-26.22.47,0,1,0,1.46,0,4,0,8.53-.84,10-4.28s-.55-7.3-6.52-12.68C194.54,137.07,213.86,114,213.86,86Zm-153,64.91c-1.32.56-5.09.66-8.35.18l-.37-.05-.36,0c-5.94.59-7.89-.13-8.38-.4.23-1.59,3.75-5.55,7.89-8.94C58.77,147.34,60.45,150,60.83,150.94Zm-8.71-16c-.45,0-.91,0-1.37,0H50.2C25.77,134.67,6,112.83,6,86c0-27,20.07-49,44.75-49a41,41,0,0,1,7.88.76A58.89,58.89,0,0,0,56.1,55c0,24.35,14.69,45.05,35,52.25C84,123.22,69.28,134.41,52.12,135Zm63.66-12.28c-1,.74-5.09,1-8.55.6l-.45-.06-.44.07c-5.36.93-6.93.24-7.23.06-.24-1.57,3-6.34,7.08-10.66C114.67,119.29,115.67,122.06,115.78,122.69Zm-.89-19.55a41.31,41.31,0,0,1-21.72-1.54C75.16,95.26,62.1,76.75,62.1,55A53.07,53.07,0,0,1,64.42,39.4a50.26,50.26,0,0,1,2.09-5.62C73.74,17.36,89.1,6,106.85,6S140,17.38,147.2,33.83a49.16,49.16,0,0,1,2.08,5.63A52.72,52.72,0,0,1,151.59,55c0,21.72-13,40.18-30.91,46.57A39.34,39.34,0,0,1,114.89,103.14Zm55.64,47.72c-1.23.68-5.39.82-9,.27l-.4-.07-.41.05c-5,.59-7,.16-7.62-.09.52-1.77,4.25-5.75,8.64-9.26C169,147.49,170.3,150.11,170.53,150.86ZM163.11,135h-.36c-.66,0-1.32,0-2-.05-16.76-.95-31.12-12-38-27.77C143,99.93,157.59,79.26,157.59,55a58.66,58.66,0,0,0-2.52-17.11,40.38,40.38,0,0,1,8-.8c24.68,0,44.75,22,44.75,49S187.79,135,163.11,135Z"/><path class="cls-1" d="M100.41,21.57c-.7.11-14.17,2.48-20.89,19.21a44.64,44.64,0,0,0-2,6.07h0a59.87,59.87,0,0,0-1.43,8.42l-6-.6a62.16,62.16,0,0,1,2.2-11.5,49.68,49.68,0,0,1,2.09-5.73c8.32-19,24.86-21.78,25.06-21.81Z"/><path class="cls-1" d="M48.6,56.7c-1.06.18-21.29,3.9-24.26,33.71l-6-.6c3.48-34.78,29.1-39,29.36-39l.44,3Z"/><path class="cls-1" d="M48.62,56.7h0l-.44-3Z"/><path class="cls-1" d="M51.15,134.28l-.95.71h.55c.46,0,.92,0,1.37,0Z"/><path class="cls-1" d="M161.74,134.23l-1,.71c.65,0,1.31.05,2,.05Z"/></g></g></svg>