<svg xmlns="http://www.w3.org/2000/svg" viewBox="0 0 181.7 243.58"><defs><style>.cls-1,.cls-2{fill:#f37233;}.cls-2{fill-rule:evenodd;}</style></defs><title>Asset 4</title><g id="Layer_2" data-name="Layer 2"><g id="Layer_2-2" data-name="Layer 2"><path class="cls-1" d="M120,17.22l.7,1.33L122.54,22l3.92.46,1.49.17-1,1.08-2.75,2.83.77,3.86.3,1.47-1.35-.66-3.54-1.74-3.43,1.93-1.31.73.21-1.48.56-3.91-2.89-2.67-1.1-1,1.47-.25,3.89-.67,1.65-3.59.62-1.36ZM119.55.28l-7,15.17L96.11,18.29l12.27,11.33L106,46.14,120.56,38l15,7.37L132.28,29l11.64-12-16.58-2L119.55.28Z"/><path class="cls-1" d="M157.79,73.73l.7,1.33,1.84,3.49,3.92.46,1.48.17-1,1.08-2.75,2.83.77,3.86.29,1.47-1.34-.66L158.12,86,154.68,88l-1.3.73.21-1.48.56-3.9-2.9-2.68-1.1-1,1.48-.25,3.89-.67,1.64-3.58.63-1.37Zm-.46-16.94-7,15.17L133.9,74.8l12.27,11.33-2.38,16.52,14.56-8.16,15,7.37-3.26-16.37,11.63-12-16.58-2-7.79-14.77Z"/><path class="cls-1" d="M20.25,90.75l3.19,1.68,3.49,1.84,3.49-1.84,3.19-1.68L33,94.31l-.66,3.88L35.16,101l2.58,2.51-3.57.52-3.9.57-1.74,3.54-1.6,3.23-1.6-3.23-1.74-3.54-3.9-.57-3.57-.52L18.7,101l2.82-2.76-.66-3.88-.61-3.56ZM43.57,77,26.93,85.79,10.29,77l3.17,18.54L0,108.7l18.61,2.7,8.32,16.87,8.32-16.87,18.61-2.7L40.39,95.58,43.57,77Z"/><path class="cls-1" d="M40.66,6a4.82,4.82,0,1,1-4.82,4.82A4.82,4.82,0,0,1,40.66,6Zm0-6A10.82,10.82,0,1,0,51.48,10.82,10.83,10.83,0,0,0,40.66,0Z"/><path class="cls-1" d="M161.23,29.33a5,5,0,1,1-5,5.05,5.06,5.06,0,0,1,5-5.05Zm0-7a12,12,0,1,0,12.05,12.05,12.06,12.06,0,0,0-12.05-12.05Z"/><polygon class="cls-1" points="87.29 14.94 81.91 93.15 78.54 93.06 77.27 14.67 87.29 14.94"/><polygon class="cls-1" points="44.85 37.7 68.34 112.49 65.18 113.63 35.42 41.1 44.85 37.7"/><polygon class="cls-1" points="137.3 52.94 94.19 118.42 91.3 116.69 128.7 47.79 137.3 52.94"/><path class="cls-2" d="M99.09,58.67a9.17,9.17,0,1,0,9.17,9.17A9.17,9.17,0,0,0,99.09,58.67Zm0,12.67A1.86,1.86,0,1,1,101,69.48,1.87,1.87,0,0,1,99.11,71.34Z"/><path class="cls-2" d="M36.73,129.45,82.28,243.58l45.09-124.35Zm44.68,92-7.78-19.91,12.25,6.76Zm7.41-19.91L69.29,191.3l-8-20,32.1,17.61Zm7.53-20.18-39.7-22.59L47.58,136l54,30.76Zm7.79-22.72-42-24.38,28.34-2.94,19.79,10.73Zm.25-28.85L116,128.27l-2.55,7Z"/></g></g></svg>