<svg xmlns="http://www.w3.org/2000/svg" viewBox="0 0 333333 333333" shape-rendering="geometricPrecision" text-rendering="geometricPrecision" image-rendering="optimizeQuality" fill-rule="evenodd" clip-rule="evenodd"><path d="M113071 214950c17152 35763 69143 37019 85561 206-4479-4533-7800-9387-11102-14216-541-791-1081-1581-1631-2376-7930 6292-17547 10300-30082 10268-13521-34-23700-5201-32048-12836-500-457-993-922-1478-1396-1194 3322-2714 7294-4340 11002-1566 3572-3249 6936-4880 9348zm116777 47992l12328-12922 17772 17101 27663-36872 13744 11106c-6496 8018-29599 39742-34631 43861-4138 3385-10124 3384-13980-319l-22896-21955zm35923-73769c18656 0 35546 7563 47773 19789 12226 12226 19789 29117 19789 47772 0 18656-7563 35547-19789 47773s-29117 19789-47773 19789-35546-7563-47772-19789-19789-29117-19789-47773c0-13511 3968-26096 10801-36655-1946-850-3889-1804-5962-2998-8296 38460-73870 47754-94091 2186-14282 7198-28802 12643-45402 15206l9644 69685H15633c-28532-2173-10941-43412-2344-54763 4128-5449 9251-9476 14928-12641 17041-9503 61380-12637 79770-25479 1348-2030 2810-4986 4211-8179 2112-4818 4039-10093 5263-13683-5156-6059-9552-12898-13788-19636l-13944-22170c-5099-7604-7748-14557-7909-20256-76-2685 379-5121 1369-7256 1041-2243 2637-4119 4793-5567 1008-680 2134-1254 3380-1724-903-12026-1242-27180-659-39865 300-3010 876-6021 1718-9030 3563-12733 12500-22979 23559-30023 6094-3880 12778-6817 19753-8790 4417-1249-3771-15411 804-15881 22138-2274 57956 17940 73413 34662 7744 8378 12598 19482 13651 34173l-869 36187v-2c3867 1177 6343 3628 7358 7598 1122 4395-96 10593-3822 19046l-11-6c-68 154-146 305-236 453l-15890 26171c-5838 9616-11764 19255-19496 26866 695 999 1391 2016 2087 3033 3148 4603 6314 9231 10389 13356 130 132 246 274 348 421 2426 1713 5313 3254 8535 4660 1847-2425 3854-4722 6006-6874 12226-12226 29117-19789 47772-19789l-2 4zM99396 119235c-3090 119-5429 760-7030 1837-913 612-1584 1395-2015 2325-480 1035-699 2291-658 3736 121 4242 2345 9787 6643 16176l61 93 13945 22174c5592 8893 11453 17953 18738 24615 7003 6404 15504 10738 26738 10767 12170 30 21072-4475 28294-11235 7515-7035 13442-16675 19284-26297l15706-25872c2928-6678 3995-11152 3324-13772-398-1561-2120-2325-5058-2473-623-30-1263-37-1913-20-700 21-1433 68-2194 138-417 37-824 9-1211-79-1397 77-2837-20-4307-235l5380-23805c-39913 6291-69768-23354-111959-5929l3042 28062c-1704 77-3313 20-4809-207v2l-1-1zm166375 80384c-15772 0-30052 6393-40387 16728s-16728 24614-16728 40387c0 31545 25570 57115 57115 57115 15773 0 30053-6393 40387-16728 10335-10335 16728-24615 16728-40388 0-31545-25570-57114-57115-57114z" fill-rule="nonzero"/></svg>