<svg xmlns="http://www.w3.org/2000/svg" xmlns:xlink="http://www.w3.org/1999/xlink" viewBox="0 0 627.8 299.94"><defs><style>.cls-1{fill:url(#linear-gradient);}</style><linearGradient id="linear-gradient" y1="149.97" x2="627.8" y2="149.97" gradientUnits="userSpaceOnUse"><stop offset="0" stop-color="#ecb71a"/><stop offset="0" stop-color="#dda517"/><stop offset="0.32" stop-color="#b57a11"/><stop offset="0.68" stop-color="#fdd649"/><stop offset="1" stop-color="#eccb34"/></linearGradient></defs><g id="Layer_2" data-name="Layer 2"><g id="Layer_6" data-name="Layer 6"><path class="cls-1" d="M580.38,163.88l-2.68-3.74a2.43,2.43,0,0,0-3.37-.58l-.76.55a2.41,2.41,0,0,0-.56,3.37l2.66,3.74a2.4,2.4,0,0,0,3.37.56l.76-.53A2.43,2.43,0,0,0,580.38,163.88ZM627,182a2.36,2.36,0,0,0-3.3.26l0,0c-7,8.13-15.74,14.45-24.21,20.92-1.76,1.29-3.49,2.58-5.27,3.85.05-1.27.07-2.56.07-3.83-.07-5.54-.39-11.5-3-17a13.7,13.7,0,0,0-6.86-7,8.31,8.31,0,0,0-2.72-.57,7.52,7.52,0,0,0-2.61.37,19.63,19.63,0,0,0-4.11,1.75,34.07,34.07,0,0,0-6.72,5.1c-2,1.83-3.9,3.67-5.91,5.43a138.74,138.74,0,0,1-26.06,18.54,90.28,90.28,0,0,1-14.52,6.3,38,38,0,0,1-7.48,1.64c-2.38.27-5,.23-6.24-.53a2.59,2.59,0,0,1-1.06-1.5,6.77,6.77,0,0,1-.14-2.7,28.86,28.86,0,0,1,.67-3.72l.81-3.88,1.53-7.83,1.43-7.91a61.91,61.91,0,0,0,.78-16.6,34.63,34.63,0,0,0-1.66-8.41,24.12,24.12,0,0,0-2-3.9,37.64,37.64,0,0,1-2.13-3.41,21.46,21.46,0,0,1-1.77-4.32c.16-.53.3-1.06.43-1.59l1-3.91.53-2a4.75,4.75,0,0,0,.17-1.27,2.35,2.35,0,0,0-.17-.9,1.65,1.65,0,0,0-1-1,2.29,2.29,0,0,0-1.82.3,3.87,3.87,0,0,0-1.06.9,5.09,5.09,0,0,0-1.06,2.33,11,11,0,0,0,.32,4.39c.14.55.3,1.13.49,1.66-.63,2.15-1.18,4.34-1.9,6.47a72.7,72.7,0,0,1-6.55,14.33,37.57,37.57,0,0,1-4.69,6.17,15.32,15.32,0,0,1-6.12,4.27l-.51.25a2.06,2.06,0,0,0-.48,2.86,2,2,0,0,0,2.84.49l.09-.07c9.74-6.81,14.43-17.31,17.78-27.52.34-1.13.67-2.26,1-3.39.3.74.62,1.48.92,2.21.48,1.25,1.15,2.57,1.52,3.74a18.13,18.13,0,0,1,.77,3.68,36.16,36.16,0,0,1,0,7.57c-.53,5.1-1.8,10.11-2.77,15.35s-2,10.48-2.7,16l-.55,4.06a31.53,31.53,0,0,0-.42,4.25,12.6,12.6,0,0,0,.88,5.22,8.24,8.24,0,0,0,4.13,4.39,11.27,11.27,0,0,0,5.15.9,21.51,21.51,0,0,0,4.45-.65,49.82,49.82,0,0,0,7.92-3,112.27,112.27,0,0,0,14.39-7.74A317.51,317.51,0,0,0,563.71,193l6.35-5a31.74,31.74,0,0,1,6.44-4.13,14.27,14.27,0,0,1,3.42-1,3.2,3.2,0,0,1,2.49.51,9,9,0,0,1,3.23,5.1c2.24,7.18,1.83,15.63.83,23.92l-.11.06c-4.41,3-9.08,5.66-13.51,8.82a161.73,161.73,0,0,0-24.45,21.4c-7.34,7.92-14.33,16.65-18.37,27.13a48.87,48.87,0,0,0-3.33,16.51c0,2.86.12,6,2.15,9.11a8.09,8.09,0,0,0,4.64,3.26,14,14,0,0,0,5,.25c6.4-1,11.15-4.64,15.43-8.12,2.14-1.8,4.13-3.63,6.09-5.57l2.95-2.9,2.8-3.05c14.87-16.51,23.94-37.72,27.31-59.52.41-3,.76-6.09,1-9.16,2.4-1.71,4.75-3.44,7.09-5.2,8.7-6.39,16.64-13.57,25.69-19.71a3,3,0,0,0,.46-.42A2.36,2.36,0,0,0,627,182ZM504.31,145.13l-.55,1.92-.23.81a9.55,9.55,0,0,1,.11-1.44,2.66,2.66,0,0,1,.6-1.29s.05-.07.09-.09A.64.64,0,0,0,504.31,145.13Zm81.33,73.53a122.5,122.5,0,0,1-24.84,56.47l-2.49,3L555.68,281c-1.78,1.92-3.67,3.81-5.54,5.57-3.77,3.44-8,6.53-12.38,7.27a9.48,9.48,0,0,1-3,0,3,3,0,0,1-1.85-1.23c-1-1.36-1.45-3.85-1.48-6.28a43.11,43.11,0,0,1,2.66-15c3.48-9.72,10-18.26,17-26.16a152.65,152.65,0,0,1,23.53-21.4c3.64-2.67,7.52-5.08,11.38-7.66C585.87,217,585.76,217.8,585.64,218.66ZM501.79,51.8a37.13,37.13,0,0,0-8.42-12.68A39.42,39.42,0,0,0,480.74,31c-9.4-3.76-19.51-3.49-28.69-1.59A87,87,0,0,0,426.1,39.65a150.48,150.48,0,0,0-22.56,15.77c-3.48,3-6.81,6.14-10,9.47l-.1.09c.17-.46.3-.93.44-1.39,1.23-4,2.33-8.1,3.46-12.16.95-4.09,2.11-8.15,2.87-12.31l1.24-6.19c.4-2.05.74-4.27,1-6.32a48.66,48.66,0,0,0,.39-13.16,19.09,19.09,0,0,0-2.24-6.81,13.25,13.25,0,0,0-5.4-5.22A14.47,14.47,0,0,0,388.1,0a27.5,27.5,0,0,0-6.67,1.21,46.84,46.84,0,0,0-11.78,5.47,94.84,94.84,0,0,0-10.22,7.66,99.54,99.54,0,0,0-17,18.91,79.5,79.5,0,0,0-11.05,23,76.19,76.19,0,0,0-2.54,25.42,87.74,87.74,0,0,0,1.75,12.61c.37,1.91.69,4.08,1.18,6.14.18.78.37,1.57.62,2.38a356.1,356.1,0,0,0-95.5-39.92C202,53.76,165.46,49.72,129,52.86,110.86,54.52,92.6,57.73,75.26,64.1c-1.08.35-2.19.69-3.27,1.11l-3.17,1.36-6.37,2.72L56.1,72.07c-2.05,1.06-4.15,2-6.16,3.16a123.38,123.38,0,0,0-23.13,15.9A77.36,77.36,0,0,0,9.12,113.62a80.34,80.34,0,0,0-8.49,26.8A69.24,69.24,0,0,0,2.5,168.26a67,67,0,0,0,4.85,13c2,4.16,4.71,7.78,6.07,12.49l0,.1a3.17,3.17,0,0,0,1.34,1.8,3.25,3.25,0,0,0,3.56-5.43c-3.86-2.54-5.71-6.65-7.37-10.62a53.51,53.51,0,0,1-3.6-12.4,56.29,56.29,0,0,1-.81-12.76,62.47,62.47,0,0,1,1.8-12.56,85.83,85.83,0,0,1,9.74-23.29A67.24,67.24,0,0,1,34.36,100c13-10.57,29.22-17.52,45.31-23.53L92,72.37l12.6-3.17c2.1-.6,4.22-1,6.37-1.38l6.4-1.18c2.14-.37,4.27-.88,6.44-1.11l6.48-.78a285,285,0,0,1,52.43-1.2A381.89,381.89,0,0,1,235,70.89a385.9,385.9,0,0,1,51,14.56,397,397,0,0,1,48.73,21.47l1.16-2a3.58,3.58,0,0,1-.39-.74,10.71,10.71,0,0,1-.42-1.32c-.25-1-.44-1.94-.6-2.93-.32-2-.49-4-.79-6.21a87.87,87.87,0,0,1-1.15-12.21,77.21,77.21,0,0,1,2.89-24.06A87.37,87.37,0,0,1,361.71,17a71.87,71.87,0,0,1,9.86-7.23A44.72,44.72,0,0,1,382.51,5c3.72-1,7.8-1.22,10.6.4s4.36,5,4.64,8.65-.26,7.67-.9,11.71c-.35,2.08-.7,4-1.16,6l-1.38,6c-.86,4-2.06,8-3.07,12-1.16,4-2.31,7.92-3.58,11.84a378.51,378.51,0,0,1-18.59,45.87c-7.2,14.91-15.25,29.37-23.7,43.61s-17.43,28.26-26.9,41.74-19.78,26.5-30.4,39.22A229.76,229.76,0,0,1,253.6,267a147.08,147.08,0,0,1-20.2,13.67,134.91,134.91,0,0,1-22.21,10,72.61,72.61,0,0,1-23.66,4.23,58.6,58.6,0,0,1-11.87-1.34,56.35,56.35,0,0,1-11.26-4,29.88,29.88,0,0,1-9.42-6.81,24.54,24.54,0,0,1-5.43-10.08c-2.07-7.6-1.27-15.89,1.14-23.62,4.57-15.74,13.43-30.08,24.44-42.32a160.11,160.11,0,0,1,38.6-30.88A153.32,153.32,0,0,1,260,158.22a133.87,133.87,0,0,1,24.61-2.7c8.19,0,16.71.14,24.24,4a2.67,2.67,0,0,0,1.41.32,2.84,2.84,0,0,0-.12-5.68H310c-8.78.37-17-1-25.44-.78a132.93,132.93,0,0,0-25,2.77,161.71,161.71,0,0,0-46.91,17.73,169.45,169.45,0,0,0-39.52,30.95c-11.43,12.31-20.8,26.9-25.83,43.17-2.63,8.06-3.72,17-1.53,25.65a28.33,28.33,0,0,0,6.15,11.82,35.54,35.54,0,0,0,10.52,8,56.95,56.95,0,0,0,25,6.44A81.86,81.86,0,0,0,213,296.27a138.18,138.18,0,0,0,23.66-9.62,153,153,0,0,0,21.7-13.6c13.67-10.18,25.58-22.56,36.41-35.39s21.14-26.07,30.86-39.8c4.85-6.83,9.51-13.92,13.9-21l.62-1a51.47,51.47,0,0,0,.6,10.3,43.68,43.68,0,0,0,13.16,25.07c7.18,6.76,17.64,10,27.43,9.28a57.57,57.57,0,0,0,14.24-2.84,84.28,84.28,0,0,0,13-5.68,155.44,155.44,0,0,0,23.18-15.44,214,214,0,0,0,20.53-18.61,204.06,204.06,0,0,0,32.64-44.76,241.85,241.85,0,0,0,11.73-25.07A124.15,124.15,0,0,0,504.24,81C505.67,71.56,505.58,61.35,501.79,51.8Zm-7.73,27.49a126.12,126.12,0,0,1-7.57,24.7A233,233,0,0,1,475,127.79a213,213,0,0,1-30.54,42.76,207.85,207.85,0,0,1-19.05,18.24,147.28,147.28,0,0,1-21.22,15.32,88,88,0,0,1-11.49,5.66,50.31,50.31,0,0,1-12.1,3.09,31.39,31.39,0,0,1-12-.83l-1.47-.34-1.39-.6-2.82-1.16-2.63-1.54c-.85-.56-1.64-1.23-2.47-1.83-6.42-5.17-10.82-12.95-12.74-21.31a46.46,46.46,0,0,1-.72-16.34c2.77-4.5,5.47-9,8.15-13.57,14.94-25.72,28.17-52.62,37.86-80.9.56-.55,1.11-1.13,1.64-1.71,1.53-1.59,3.07-3.18,4.67-4.7q4.8-4.62,10-8.73a145.16,145.16,0,0,1,22.16-14.59,80.75,80.75,0,0,1,24.38-8.94c8.4-1.52,17.15-1.06,24.49,2.27a29.8,29.8,0,0,1,9.61,7,28.16,28.16,0,0,1,5.88,10C495.86,62.48,495.54,71,494.06,79.29Z"/></g></g></svg>