<svg xmlns="http://www.w3.org/2000/svg" viewBox="0 0 136.32 190.98"><defs><style>.cls-1{fill:#f37233;}</style></defs><title>Asset 3</title><g id="Layer_2" data-name="Layer 2"><g id="Layer_2-2" data-name="Layer 2"><path class="cls-1" d="M67.3,119A31.45,31.45,0,1,1,98.74,87.55,31.47,31.47,0,0,1,67.3,119Zm0-57.89A26.45,26.45,0,1,0,93.74,87.55,26.48,26.48,0,0,0,67.3,61.1Z"/><path class="cls-1" d="M136.32,191H0l.17-2.66a68.14,68.14,0,0,1,136,0ZM5.39,186H130.93A63.14,63.14,0,0,0,5.39,186Z"/><path class="cls-1" d="M55.1,86.08l-.56,0a10,10,0,0,1-6.64-3.38l3.83-3.22a5.14,5.14,0,0,0,3.16,1.61,5.48,5.48,0,0,0,4-1.82l3.4,3.66A10.49,10.49,0,0,1,55.1,86.08Z"/><path class="cls-1" d="M77.35,86.08l-.56,0a10,10,0,0,1-6.63-3.38L74,79.46a5.18,5.18,0,0,0,3.17,1.61,5.5,5.5,0,0,0,3.95-1.82l3.4,3.66A10.47,10.47,0,0,1,77.35,86.08Z"/><path class="cls-1" d="M67.85,107.71c-.5,0-1,0-1.49-.06a20.51,20.51,0,0,1-13.14-6.82l3.87-3.16-1.93,1.58,1.93-1.59a15.53,15.53,0,0,0,9.74,5c4.21.34,8.58-1.45,13-5.3l3.29,3.76C78.11,105.5,73,107.71,67.85,107.71Z"/><polygon class="cls-1" points="42.45 76.43 37.8 74.58 67.37 0 93.91 70.89 89.22 72.65 67.23 13.9 42.45 76.43"/></g></g></svg>