<svg xmlns="http://www.w3.org/2000/svg" viewBox="0 0 186.19 224.53"><defs><style>.cls-1{fill:#f37233;}</style></defs><title>Asset 2</title><g id="Layer_2" data-name="Layer 2"><g id="Layer_2-2" data-name="Layer 2"><rect class="cls-1" x="93.38" y="0.08" width="6" height="43.09" transform="translate(-0.64 3.09) rotate(-1.83)"/><rect class="cls-1" x="101.29" y="30.71" width="38.53" height="6" transform="translate(49.9 137.05) rotate(-71.26)"/><rect class="cls-1" x="126.14" y="36.88" width="36.46" height="6" transform="translate(24.82 130.11) rotate(-52.48)"/><rect class="cls-1" x="128.22" y="62.42" width="28.57" height="6" transform="translate(-13.56 80.61) rotate(-30.22)"/><rect class="cls-1" x="67.74" y="14.06" width="6" height="38.99" transform="translate(-7.12 25.29) rotate(-19.32)"/><rect class="cls-1" x="40.87" y="15.88" width="6" height="35.95" transform="translate(-11.36 29.3) rotate(-32.94)"/><rect class="cls-1" x="31.1" y="36.08" width="6" height="37.47" transform="translate(-28.44 38.81) rotate(-43.76)"/><path class="cls-1" d="M185,115.07a131,131,0,0,0,.19-34.5l-.37-2.46L97,90.71l.44,2.53c5.21,29.76,15.94,50.33,31.89,61.12a41.74,41.74,0,0,0,19.41,7.25l7.78,56.06-14.47,1.9.65,5L177,220l-.65-5-14.87,2-7.72-55.68C170.7,155,181.47,139,185,115.07ZM102.87,94.92l77.62-11.14a134,134,0,0,1,.32,22.78l-75.11.69C104.66,103.44,103.71,99.34,102.87,94.92Zm49,61.8c-3.07.12-30.62-.26-44.71-44.48l73.13-.68C178.22,129.27,171.37,149.53,151.9,156.72Z"/><path class="cls-1" d="M.53,111.61A131,131,0,0,1,2,77.14L2.5,74.7l87,16.83L89,94c-6.64,29.47-18.36,49.5-34.81,59.5a41.68,41.68,0,0,1-19.74,6.3L23.91,215.46l14.37,2.6L37.39,223l-34-6.16.88-4.93L19,214.57,29.4,159.33C12.83,152.21,2.84,135.72.53,111.61Zm83-16.15L6.5,80.57a132.75,132.75,0,0,0-1.42,22.74l75,4.33C81.29,103.88,82.44,99.83,83.49,95.46Zm-52,59.35c3.06.27,30.6,1.22,46.81-42.26l-73-4.23C6.56,126.12,12.42,146.68,31.52,154.81Z"/></g></g></svg>