<svg xmlns="http://www.w3.org/2000/svg" viewBox="0 0 333333 333333" shape-rendering="geometricPrecision" text-rendering="geometricPrecision" image-rendering="optimizeQuality" fill-rule="evenodd" clip-rule="evenodd"><path d="M101883 161852c413 193 776 454 1054 777l12561 14582c5040 5852 10324 11813 16897 16201 6326 4223 14006 7081 24154 7100 10993 20 19032-2950 25557-7409 6781-4633 12123-10978 17389-17309l6874-8266c854-1026 1131-1351 1433-1704 841-986 1790-2095 2728-3249 239-294 546-541 900-734 1121-3653 1974-7496 2573-11521 1946-13064 2015-23217-3874-35255-5085-10388-12254-15773-20058-19631 8434 9404 15391 18531 13564 26028-10289-11312-20903-21167-31894-29328-22969-11876-36472-27950-42496-47422-34076 34044-39998 73847-27362 117140zm127965 99037l12328-12922 17772 17101 27663-36872 13744 11106c-6496 8018-29599 39742-34631 43861-4138 3385-10124 3384-13980-319l-22896-21955zm-116774-47689c17152 35763 69143 37019 85561 206l-11102-14216-1368-1992c-7607 5037-16956 8362-29615 8339-12149-22-21295-3412-28797-8420-1945-1298-3767-2698-5495-4170-1189 3302-2695 7233-4305 10905-1566 3572-3249 6935-4880 9348h1zm101607-45915c-353 417-695 817-1021 1198l-1406 1645-6874 8266c-4376 5262-8807 10534-14184 15037l1525 2217c3148 4603 6314 9231 10389 13356 130 132 246 274 348 421 2426 1713 5313 3254 8535 4660 1847-2425 3854-4722 6006-6874 12226-12226 29117-19789 47772-19789 18656 0 35546 7563 47773 19789 12226 12226 19789 29117 19789 47772 0 18656-7563 35547-19789 47773s-29117 19789-47773 19789-35546-7563-47772-19789-19789-29117-19789-47773c0-13511 3968-26096 10801-36655-1946-850-3889-1804-5962-2998-8296 38461-73870 47754-94091 2186-14282 7198-28802 12643-45402 15206l9644 69684H15633c-28532-2173-10941-43412-2344-54763 4127-5449 9252-9476 14928-12641 17041-9503 61380-12637 79770-25479l4212-8179 5037-13095c-2672-2714-5149-5550-7569-8359l-10754-12484-7994 210-15225 401c-13072-15035-12248-47336-10997-65985 6098-37474 20587-64460 44181-80066 15991-10574 25533-11161 44210-11173 16304-12 26304-357 40204 8796 45322 29842 59362 100256 37213 147696h-15824 1zm91479 47312c-10335-10335-24615-16728-40387-16728s-30052 6393-40387 16728-16728 24614-16728 40387 6393 30052 16728 40387c10335 10334 24615 16728 40387 16728 15773 0 30053-6393 40387-16728 10335-10335 16728-24615 16728-40389 0-15773-6393-30052-16728-40387v1z" fill-rule="nonzero"/></svg>