<svg id="Layer_1" data-name="Layer 1" xmlns="http://www.w3.org/2000/svg" viewBox="0 0 560 140"><defs><style>.cls-1{fill:#fff;}</style></defs><title>curve-line</title><path class="cls-1" d="M387.16,105.41c-18.69,0-30.48-13.13-40.9-24.73-9.93-11.06-18.51-20.61-31.7-20.65h-.08c-12.68,0-20.88,9-30.38,19.34-10.34,11.3-22.06,24.11-41.26,24.27h-.35c-18.89,0-30.91-13.15-41.51-24.76C191,68,182.36,58.51,169.81,60.39,158,62.17,149.86,70.8,141.24,79.94c-10.1,10.69-21.54,22.82-39.87,22.82-19.13,0-31.83-13.05-43-24.57C48.86,68.45,40.68,60,30.44,60V46c16.15,0,27.23,11.39,37.94,22.4,10.17,10.46,19.77,20.33,33,20.33,12.29,0,20.35-8.54,29.69-18.43S151.14,49,167.73,46.55c19.93-3,32.5,10.76,43.58,22.89,9.49,10.39,18.46,20.2,31.19,20.2h.22c13.11-.11,21.42-9.2,31-19.72C284,58.72,295.63,46,314.48,46h.12c19.41.06,31.45,13.46,42.07,25.29,9.79,10.89,18.25,20.29,30.92,20.09,11.38-.19,19.07-9,28-19.1,10.2-11.61,21.76-24.77,41.08-25.39,16.67-.54,28.9,11.57,40.72,23.28,10.33,10.22,20.09,19.88,31.31,19.88v14c-17,0-29.82-12.71-41.16-23.94-10.17-10.06-19.74-19.58-30.42-19.23-13.26.43-21.88,10.24-31,20.64-9.7,11-20.69,23.56-38.26,23.85Z"/></svg>