<svg id="Layer_1" data-name="Layer 1" xmlns="http://www.w3.org/2000/svg" xmlns:xlink="http://www.w3.org/1999/xlink" viewBox="0 0 262.69 247.26"><defs><style>.cls-1{fill:url(#linear-gradient);}</style><linearGradient id="linear-gradient" x1="2.5" y1="123.44" x2="256.55" y2="123.44" gradientUnits="userSpaceOnUse"><stop offset="0" stop-color="#f47721"/><stop offset="1" stop-color="#960f13"/></linearGradient></defs><title>prj-event-management-logo</title><path class="cls-1" d="M103.86,5.74l38.56,39.58V149H77.57v92.17L25.23,188.81V131.09L2.5,101.55l16-23c9.36-5.1,8.17,3.07,8.17,3.07L18,94.91l45.44,17.54H107V44.66H63l.51,24.64L85.58,78c2.53,6.76-5.72,5.74-5.72,5.74L59.43,76.06C56.24,75.55,57,77.85,57,77.85L78.84,86c2.93,5.36-6.26,6-6.26,6S56.5,85.13,52.67,84.23s-2.17,1.54-2.17,1.54l21.32,8c3.32,6.51-5.49,5.49-5.49,5.49L45.65,91.64c-2.43,0-1.66,1.79-1.66,1.79L65.05,101s2.68,3.19-.77,5.36a7.82,7.82,0,0,1-7.14.34L22.41,93.38l7.66-11.74s1.87-3.24-3.57-6.13-11.41,3.06-11.41,3.06l-6.3,9C2,90.32,4.54,84.53,4.54,84.53L25.23,58.66V5.74Zm88.35,37.79h30.63V5.74h-56.6l-9.53,15.88L142.42,5.74h-23.5L153,43.19l1.11,106,38.3-38.12ZM228.8,112.6H200.72l-36.09,36.63h91.92v-106H228.8ZM228.55,5.74V37.49h28V5.74Z"/></svg>